<svg width="1440" height="112" viewBox="0 0 1440 112" fill="none" xmlns="http://www.w3.org/2000/svg">
<path fill-rule="evenodd" clip-rule="evenodd" d="M0 0L26.4 8.44444C52.8 16.8889 106.8 33.7778 159.6 52.7778C213.6 71.7778 266.4 92.8889 320.4 97.1111C373.2 101.333 427.2 88.6667 480 69.6667C532.8 50.6667 586.8 25.3333 639.6 25.3333C693.6 25.3333 746.4 50.6667 800.4 50.6667C853.2 50.6667 907.2 25.3333 960 25.3333C1012.8 25.3333 1066.8 50.6667 1119.6 67.5556C1173.6 84.4444 1226.4 92.8889 1280.4 84.4445C1333.2 76 1387.2 50.6667 1413.6 38L1440 25.3333V114H1413.6C1387.2 114 1333.2 114 1280.4 114C1226.4 114 1173.6 114 1119.6 114C1066.8 114 1012.8 114 960 114C907.2 114 853.2 114 800.4 114C746.4 114 693.6 114 639.6 114C586.8 114 532.8 114 480 114C427.2 114 373.2 114 320.4 114C266.4 114 213.6 114 159.6 114C106.8 114 52.8 114 26.4 114H0V0Z" fill="white"/>
</svg>
